<svg width="172" height="120" viewBox="0 0 172 120" fill="none" xmlns="http://www.w3.org/2000/svg">
<path d="M8 70C8 65.5817 11.5817 62 16 62H156C160.418 62 164 65.5817 164 70V102C164 106.418 160.418 110 156 110H16C11.5817 110 8 106.418 8 102V70Z" fill="#05C9B7"/>
<path d="M41.1477 92H43.2557V88.0682H45.483C48.1705 88.0682 49.6136 86.4545 49.6136 84.2159C49.6136 81.9943 48.1875 80.3636 45.5114 80.3636H41.1477V92ZM43.2557 86.3352V82.125H45.1875C46.767 82.125 47.4659 82.9773 47.4659 84.2159C47.4659 85.4545 46.767 86.3352 45.1989 86.3352H43.2557ZM53.4105 80.3636H51.3537V92H53.4105V80.3636ZM58.0369 92.1761C59.4062 92.1761 60.2244 91.5341 60.5994 90.8011H60.6676V92H62.6449V86.1591C62.6449 83.8523 60.7642 83.1591 59.0994 83.1591C57.2642 83.1591 55.8551 83.9773 55.4006 85.5682L57.321 85.8409C57.5256 85.2443 58.1051 84.733 59.1108 84.733C60.0653 84.733 60.5881 85.2216 60.5881 86.0795V86.1136C60.5881 86.7045 59.9688 86.733 58.429 86.8977C56.7358 87.0795 55.1165 87.5852 55.1165 89.5511C55.1165 91.267 56.3722 92.1761 58.0369 92.1761ZM58.571 90.6648C57.7131 90.6648 57.0994 90.2727 57.0994 89.517C57.0994 88.7273 57.7869 88.3977 58.7074 88.267C59.2472 88.1932 60.3267 88.0568 60.5938 87.8409V88.8693C60.5938 89.8409 59.8097 90.6648 58.571 90.6648ZM68.5199 92.1705C70.7131 92.1705 72.1108 90.8693 72.2585 89.017H70.2926C70.1165 89.9545 69.4403 90.4943 68.5369 90.4943C67.2528 90.4943 66.4233 89.4205 66.4233 87.6364C66.4233 85.875 67.2699 84.8182 68.5369 84.8182C69.5256 84.8182 70.1335 85.4545 70.2926 86.2955H72.2585C72.1165 84.4034 70.6392 83.1591 68.5085 83.1591C65.9517 83.1591 64.3381 85.0057 64.3381 87.6705C64.3381 90.3125 65.9119 92.1705 68.5199 92.1705ZM77.8111 92.1705C79.8452 92.1705 81.2429 91.1761 81.6065 89.6591L79.6861 89.4432C79.4077 90.1818 78.7259 90.5682 77.8395 90.5682C76.5099 90.5682 75.6293 89.6932 75.6122 88.1989H81.6918V87.5682C81.6918 84.5057 79.8509 83.1591 77.7031 83.1591C75.2031 83.1591 73.5724 84.9943 73.5724 87.6875C73.5724 90.4261 75.1804 92.1705 77.8111 92.1705ZM75.6179 86.8125C75.6804 85.6989 76.5043 84.7614 77.7315 84.7614C78.9134 84.7614 79.7088 85.625 79.7202 86.8125H75.6179ZM85.4886 86.8864C85.4886 85.625 86.2727 84.8977 87.375 84.8977C88.4545 84.8977 89.0909 85.5852 89.0909 86.7614V92H91.1477V86.4432C91.1477 84.3352 89.9545 83.1591 88.142 83.1591C86.8011 83.1591 85.9489 83.767 85.5455 84.7557H85.4432V80.3636H83.4318V92H85.4886V86.8864ZM97.0511 92.1705C99.608 92.1705 101.233 90.3693 101.233 87.6705C101.233 84.9659 99.608 83.1591 97.0511 83.1591C94.4943 83.1591 92.8693 84.9659 92.8693 87.6705C92.8693 90.3693 94.4943 92.1705 97.0511 92.1705ZM97.0625 90.5227C95.6477 90.5227 94.9545 89.2614 94.9545 87.6648C94.9545 86.0682 95.6477 84.7898 97.0625 84.7898C98.4545 84.7898 99.1477 86.0682 99.1477 87.6648C99.1477 89.2614 98.4545 90.5227 97.0625 90.5227ZM105.036 80.3636H102.979V92H105.036V80.3636ZM110.389 92.1534C111.889 92.1534 112.565 91.2614 112.889 90.625H113.014V92H115.037V80.3636H112.974V84.7159H112.889C112.577 84.0852 111.935 83.1591 110.395 83.1591C108.378 83.1591 106.793 84.7386 106.793 87.6477C106.793 90.5227 108.332 92.1534 110.389 92.1534ZM110.963 90.4659C109.605 90.4659 108.889 89.2727 108.889 87.6364C108.889 86.0114 109.594 84.8466 110.963 84.8466C112.287 84.8466 113.014 85.9432 113.014 87.6364C113.014 89.3295 112.276 90.4659 110.963 90.4659ZM121.092 92.1705C123.126 92.1705 124.524 91.1761 124.888 89.6591L122.967 89.4432C122.689 90.1818 122.007 90.5682 121.121 90.5682C119.791 90.5682 118.911 89.6932 118.893 88.1989H124.973V87.5682C124.973 84.5057 123.132 83.1591 120.984 83.1591C118.484 83.1591 116.854 84.9943 116.854 87.6875C116.854 90.4261 118.462 92.1705 121.092 92.1705ZM118.899 86.8125C118.962 85.6989 119.786 84.7614 121.013 84.7614C122.195 84.7614 122.99 85.625 123.001 86.8125H118.899ZM126.713 92H128.77V86.8693C128.77 85.7614 129.605 84.9773 130.736 84.9773C131.082 84.9773 131.514 85.0398 131.69 85.0966V83.2045C131.503 83.1705 131.179 83.1477 130.952 83.1477C129.952 83.1477 129.116 83.7159 128.798 84.7273H128.707V83.2727H126.713V92Z" fill="white"/>
<path d="M8 16C8 11.5817 11.5817 8 16 8H156C160.418 8 164 11.5817 164 16V48C164 52.4183 160.418 56 156 56H16C11.5817 56 8 52.4183 8 48V16Z" fill="#7860D7"/>
<path d="M41.1477 38H43.2557V34.0682H45.483C48.1705 34.0682 49.6136 32.4545 49.6136 30.2159C49.6136 27.9943 48.1875 26.3636 45.5114 26.3636H41.1477V38ZM43.2557 32.3352V28.125H45.1875C46.767 28.125 47.4659 28.9773 47.4659 30.2159C47.4659 31.4545 46.767 32.3352 45.1989 32.3352H43.2557ZM53.4105 26.3636H51.3537V38H53.4105V26.3636ZM58.0369 38.1761C59.4062 38.1761 60.2244 37.5341 60.5994 36.8011H60.6676V38H62.6449V32.1591C62.6449 29.8523 60.7642 29.1591 59.0994 29.1591C57.2642 29.1591 55.8551 29.9773 55.4006 31.5682L57.321 31.8409C57.5256 31.2443 58.1051 30.733 59.1108 30.733C60.0653 30.733 60.5881 31.2216 60.5881 32.0795V32.1136C60.5881 32.7045 59.9688 32.733 58.429 32.8977C56.7358 33.0795 55.1165 33.5852 55.1165 35.5511C55.1165 37.267 56.3722 38.1761 58.0369 38.1761ZM58.571 36.6648C57.7131 36.6648 57.0994 36.2727 57.0994 35.517C57.0994 34.7273 57.7869 34.3977 58.7074 34.267C59.2472 34.1932 60.3267 34.0568 60.5938 33.8409V34.8693C60.5938 35.8409 59.8097 36.6648 58.571 36.6648ZM68.5199 38.1705C70.7131 38.1705 72.1108 36.8693 72.2585 35.017H70.2926C70.1165 35.9545 69.4403 36.4943 68.5369 36.4943C67.2528 36.4943 66.4233 35.4205 66.4233 33.6364C66.4233 31.875 67.2699 30.8182 68.5369 30.8182C69.5256 30.8182 70.1335 31.4545 70.2926 32.2955H72.2585C72.1165 30.4034 70.6392 29.1591 68.5085 29.1591C65.9517 29.1591 64.3381 31.0057 64.3381 33.6705C64.3381 36.3125 65.9119 38.1705 68.5199 38.1705ZM77.8111 38.1705C79.8452 38.1705 81.2429 37.1761 81.6065 35.6591L79.6861 35.4432C79.4077 36.1818 78.7259 36.5682 77.8395 36.5682C76.5099 36.5682 75.6293 35.6932 75.6122 34.1989H81.6918V33.5682C81.6918 30.5057 79.8509 29.1591 77.7031 29.1591C75.2031 29.1591 73.5724 30.9943 73.5724 33.6875C73.5724 36.4261 75.1804 38.1705 77.8111 38.1705ZM75.6179 32.8125C75.6804 31.6989 76.5043 30.7614 77.7315 30.7614C78.9134 30.7614 79.7088 31.625 79.7202 32.8125H75.6179ZM85.4886 32.8864C85.4886 31.625 86.2727 30.8977 87.375 30.8977C88.4545 30.8977 89.0909 31.5852 89.0909 32.7614V38H91.1477V32.4432C91.1477 30.3352 89.9545 29.1591 88.142 29.1591C86.8011 29.1591 85.9489 29.767 85.5455 30.7557H85.4432V26.3636H83.4318V38H85.4886V32.8864ZM97.0511 38.1705C99.608 38.1705 101.233 36.3693 101.233 33.6705C101.233 30.9659 99.608 29.1591 97.0511 29.1591C94.4943 29.1591 92.8693 30.9659 92.8693 33.6705C92.8693 36.3693 94.4943 38.1705 97.0511 38.1705ZM97.0625 36.5227C95.6477 36.5227 94.9545 35.2614 94.9545 33.6648C94.9545 32.0682 95.6477 30.7898 97.0625 30.7898C98.4545 30.7898 99.1477 32.0682 99.1477 33.6648C99.1477 35.2614 98.4545 36.5227 97.0625 36.5227ZM105.036 26.3636H102.979V38H105.036V26.3636ZM110.389 38.1534C111.889 38.1534 112.565 37.2614 112.889 36.625H113.014V38H115.037V26.3636H112.974V30.7159H112.889C112.577 30.0852 111.935 29.1591 110.395 29.1591C108.378 29.1591 106.793 30.7386 106.793 33.6477C106.793 36.5227 108.332 38.1534 110.389 38.1534ZM110.963 36.4659C109.605 36.4659 108.889 35.2727 108.889 33.6364C108.889 32.0114 109.594 30.8466 110.963 30.8466C112.287 30.8466 113.014 31.9432 113.014 33.6364C113.014 35.3295 112.276 36.4659 110.963 36.4659ZM121.092 38.1705C123.126 38.1705 124.524 37.1761 124.888 35.6591L122.967 35.4432C122.689 36.1818 122.007 36.5682 121.121 36.5682C119.791 36.5682 118.911 35.6932 118.893 34.1989H124.973V33.5682C124.973 30.5057 123.132 29.1591 120.984 29.1591C118.484 29.1591 116.854 30.9943 116.854 33.6875C116.854 36.4261 118.462 38.1705 121.092 38.1705ZM118.899 32.8125C118.962 31.6989 119.786 30.7614 121.013 30.7614C122.195 30.7614 122.99 31.625 123.001 32.8125H118.899ZM126.713 38H128.77V32.8693C128.77 31.7614 129.605 30.9773 130.736 30.9773C131.082 30.9773 131.514 31.0398 131.69 31.0966V29.2045C131.503 29.1705 131.179 29.1477 130.952 29.1477C129.952 29.1477 129.116 29.7159 128.798 30.7273H128.707V29.2727H126.713V38Z" fill="white"/>
<rect x="0.5" y="0.5" width="171" height="119" rx="4.5" stroke="#7B61FF" stroke-dasharray="10 5"/>
</svg>
