<svg width="1440" height="669" viewBox="0 0 1440 669" fill="none" xmlns="http://www.w3.org/2000/svg">
<path d="M657.212 90.7195C589 90.7195 533.705 35.4238 533.705 -32.7886C533.705 -101.001 589.001 -156.295 657.212 -156.295C725.422 -156.295 780.72 -101 780.72 -32.7886C780.72 35.4223 725.423 90.7195 657.212 90.7195ZM657.212 140.423C752.874 140.423 830.424 62.8731 830.424 -32.7886C830.424 -128.45 752.874 -206 657.212 -206C561.549 -206 484 -128.45 484 -32.7886C484 62.8728 561.549 140.423 657.212 140.423Z" fill="url(#paint0_linear)"/>
<path d="M1416.21 404.719C1348 404.719 1292.71 349.424 1292.71 281.211C1292.71 212.999 1348 157.705 1416.21 157.705C1484.42 157.705 1539.72 213 1539.72 281.211C1539.72 349.422 1484.42 404.719 1416.21 404.719ZM1416.21 454.423C1511.87 454.423 1589.42 376.873 1589.42 281.211C1589.42 185.55 1511.87 108 1416.21 108C1320.55 108 1243 185.55 1243 281.211C1243 376.873 1320.55 454.423 1416.21 454.423Z" fill="url(#paint1_linear)"/>
<path d="M-3.78824 618.719C-71.9995 618.719 -127.295 563.424 -127.295 495.211C-127.295 426.999 -71.9988 371.705 -3.78824 371.705C64.4223 371.705 119.72 427 119.72 495.211C119.72 563.422 64.423 618.719 -3.78824 618.719ZM-3.78824 668.423C91.8743 668.423 169.424 590.873 169.424 495.211C169.424 399.55 91.8743 322 -3.78824 322C-99.4507 322 -177 399.55 -177 495.211C-177 590.873 -99.4507 668.423 -3.78824 668.423Z" fill="url(#paint2_linear)"/>
<path fill-rule="evenodd" clip-rule="evenodd" d="M879 92C880.061 92 881.078 91.5788 881.828 90.8286C882.579 90.0785 883 89.0609 883 88C883 86.9391 882.579 85.922 881.828 85.1719C881.078 84.4217 880.061 84 879 84C877.939 84 876.922 84.4217 876.172 85.1719C875.421 85.922 875 86.9391 875 88C875 89.0609 875.421 90.0785 876.172 90.8286C876.922 91.5788 877.939 92 879 92Z" fill="#00C9B7"/>
<path fill-rule="evenodd" clip-rule="evenodd" d="M301 508C302.061 508 303.078 507.579 303.828 506.829C304.579 506.078 305 505.061 305 504C305 502.939 304.579 501.922 303.828 501.172C303.078 500.422 302.061 500 301 500C299.939 500 298.922 500.422 298.172 501.172C297.421 501.922 297 502.939 297 504C297 505.061 297.421 506.078 298.172 506.829C298.922 507.579 299.939 508 301 508Z" fill="#00C9B7"/>
<path fill-rule="evenodd" clip-rule="evenodd" d="M1263 560C1264.06 560 1265.08 559.579 1265.83 558.829C1266.58 558.078 1267 557.061 1267 556C1267 554.939 1266.58 553.922 1265.83 553.172C1265.08 552.422 1264.06 552 1263 552C1261.94 552 1260.92 552.422 1260.17 553.172C1259.42 553.922 1259 554.939 1259 556C1259 557.061 1259.42 558.078 1260.17 558.829C1260.92 559.579 1261.94 560 1263 560Z" fill="#E34A67"/>
<path fill-rule="evenodd" clip-rule="evenodd" d="M85 152C86.0609 152 87.0783 151.579 87.8285 150.829C88.5786 150.078 89 149.061 89 148C89 146.939 88.5786 145.922 87.8285 145.172C87.0783 144.422 86.0609 144 85 144C83.9391 144 82.9218 144.422 82.1716 145.172C81.4215 145.922 81 146.939 81 148C81 149.061 81.4215 150.078 82.1716 150.829C82.9218 151.579 83.9391 152 85 152Z" fill="#E34A67"/>
<path fill-rule="evenodd" clip-rule="evenodd" d="M664 660C665.061 660 666.078 659.579 666.828 658.829C667.579 658.078 668 657.061 668 656C668 654.939 667.579 653.922 666.828 653.172C666.078 652.422 665.061 652 664 652C662.939 652 661.922 652.422 661.172 653.172C660.421 653.922 660 654.939 660 656C660 657.061 660.421 658.078 661.172 658.829C661.922 659.579 662.939 660 664 660Z" fill="#7860D7"/>
<defs>
<linearGradient id="paint0_linear" x1="657.212" y1="-206" x2="657.212" y2="140.423" gradientUnits="userSpaceOnUse">
<stop stop-color="#2B2347"/>
<stop offset="1" stop-color="#221B3A"/>
</linearGradient>
<linearGradient id="paint1_linear" x1="1416.21" y1="108" x2="1416.21" y2="454.423" gradientUnits="userSpaceOnUse">
<stop stop-color="#2B2347"/>
<stop offset="1" stop-color="#221B3A"/>
</linearGradient>
<linearGradient id="paint2_linear" x1="-3.78822" y1="322" x2="-3.78822" y2="668.423" gradientUnits="userSpaceOnUse">
<stop stop-color="#2B2347"/>
<stop offset="1" stop-color="#221B3A"/>
</linearGradient>
</defs>
</svg>
